<?xml version="1.0" encoding="UTF-8" standalone="no"?>
<svg
   xmlns:dc="http://purl.org/dc/elements/1.1/"
   xmlns:cc="http://creativecommons.org/ns#"
   xmlns:rdf="http://www.w3.org/1999/02/22-rdf-syntax-ns#"
   xmlns:svg="http://www.w3.org/2000/svg"
   xmlns="http://www.w3.org/2000/svg"
   xmlns:sodipodi="http://sodipodi.sourceforge.net/DTD/sodipodi-0.dtd"
   xmlns:inkscape="http://www.inkscape.org/namespaces/inkscape"
   height="18"
   viewBox="0 0 18 18"
   width="18"
   fill="#000000"
   version="1.1"
   id="svg98"
   sodipodi:docname="power.svg"
   inkscape:version="1.0.2 (e86c870879, 2021-01-15, custom)">
  <metadata
     id="metadata104">
    <rdf:RDF>
      <cc:Work
         rdf:about="">
        <dc:format>image/svg+xml</dc:format>
        <dc:type
           rdf:resource="http://purl.org/dc/dcmitype/StillImage" />
      </cc:Work>
    </rdf:RDF>
  </metadata>
  <defs
     id="defs102" />
  <sodipodi:namedview
     pagecolor="#ffffff"
     bordercolor="#666666"
     borderopacity="1"
     objecttolerance="10"
     gridtolerance="10"
     guidetolerance="10"
     inkscape:pageopacity="0"
     inkscape:pageshadow="2"
     inkscape:window-width="1918"
     inkscape:window-height="1059"
     id="namedview100"
     showgrid="false"
     inkscape:zoom="36.791667"
     inkscape:cx="9"
     inkscape:cy="9"
     inkscape:window-x="0"
     inkscape:window-y="19"
     inkscape:window-maximized="0"
     inkscape:current-layer="svg98" />
  <path
     d="M -3,-3 H 21 V 21 H -3 Z"
     fill="none"
     id="path94" />
  <path
     d="M 10,0 H 8 v 10 h 2 z m 4.83,2.17 -1.42,1.42 C 14.99,4.86 16,6.81 16,9 16,12.87 12.87,16 9,16 5.13,16 2,12.87 2,9 2,6.81 3.01,4.86 4.58,3.58 L 3.17,2.17 C 1.23,3.82 0,6.26 0,9 c 0,4.97 4.03,9 9,9 4.97,0 9,-4.03 9,-9 0,-2.74 -1.23,-5.18 -3.17,-6.83 z"
     id="path96" />
</svg>
