<?xml version="1.0" encoding="UTF-8" standalone="no"?>
<svg
   xmlns:dc="http://purl.org/dc/elements/1.1/"
   xmlns:cc="http://creativecommons.org/ns#"
   xmlns:rdf="http://www.w3.org/1999/02/22-rdf-syntax-ns#"
   xmlns:svg="http://www.w3.org/2000/svg"
   xmlns="http://www.w3.org/2000/svg"
   xmlns:sodipodi="http://sodipodi.sourceforge.net/DTD/sodipodi-0.dtd"
   xmlns:inkscape="http://www.inkscape.org/namespaces/inkscape"
   width="100"
   height="100"
   version="1.1"
   id="svg6"
   sodipodi:docname="onoff.svg"
   inkscape:version="1.0.2 (e86c870879, 2021-01-15)">
  <metadata
     id="metadata12">
    <rdf:RDF>
      <cc:Work
         rdf:about="">
        <dc:format>image/svg+xml</dc:format>
        <dc:type
           rdf:resource="http://purl.org/dc/dcmitype/StillImage" />
      </cc:Work>
    </rdf:RDF>
  </metadata>
  <defs
     id="defs10" />
  <sodipodi:namedview
     pagecolor="#ffffff"
     bordercolor="#666666"
     borderopacity="1"
     objecttolerance="10"
     gridtolerance="10"
     guidetolerance="10"
     inkscape:pageopacity="0"
     inkscape:pageshadow="2"
     inkscape:window-width="1916"
     inkscape:window-height="1058"
     id="namedview8"
     showgrid="false"
     inkscape:zoom="6.2437529"
     inkscape:cx="50"
     inkscape:cy="49.941648"
     inkscape:window-x="0"
     inkscape:window-y="19"
     inkscape:window-maximized="0"
     inkscape:current-layer="svg6" />
  <rect
     x="45.181522"
     y="0.26808548"
     width="8.4549437"
     height="51.529884"
     id="rect2"
     style="stroke-width:1.47489" />
  <path
     d="m 49.408246,99.491916 c -26.807047,0 -48.61480525,-21.328092 -48.61480525,-47.545178 0,-15.387497 7.69431155,-29.896959 20.58329025,-38.811497 l 4.881466,6.751538 C 15.60637,27.253816 9.2468925,39.24002 9.2468925,51.946738 c 0,21.657719 18.0165315,39.27531 40.1598615,39.27531 22.143331,0 40.158371,-17.617591 40.158371,-39.27531 0,-12.706718 -6.357986,-24.691463 -17.008322,-32.058501 l 4.881466,-6.751538 c 12.888979,8.915997 20.58329,23.424 20.58329,38.810039 0.0015,26.215627 -21.806266,47.545178 -48.613313,47.545178 z"
     id="path4"
     style="stroke-width:1.47489" />
</svg>
